<svg xmlns="http://www.w3.org/2000/svg" viewBox="0 0 1920 1080" width="1920" height="1080">
  <defs>
    <!-- Background gradients -->
    <linearGradient id="heroGradient" x1="0%" y1="0%" x2="100%" y2="100%">
      <stop offset="0%" style="stop-color:#faf9f6;stop-opacity:1" />
      <stop offset="25%" style="stop-color:#f5f5f0;stop-opacity:1" />
      <stop offset="50%" style="stop-color:#f0f0eb;stop-opacity:1" />
      <stop offset="75%" style="stop-color:#e8e8e3;stop-opacity:1" />
      <stop offset="100%" style="stop-color:#e0e0db;stop-opacity:1" />
    </linearGradient>
    
    <!-- Accent gradients -->
    <radialGradient id="accentGlow1" cx="20%" cy="30%" r="30%">
      <stop offset="0%" style="stop-color:#1a5f4a;stop-opacity:0.1" />
      <stop offset="100%" style="stop-color:#1a5f4a;stop-opacity:0" />
    </radialGradient>
    
    <radialGradient id="accentGlow2" cx="80%" cy="70%" r="25%">
      <stop offset="0%" style="stop-color:#1e3a8a;stop-opacity:0.1" />
      <stop offset="100%" style="stop-color:#1e3a8a;stop-opacity:0" />
    </radialGradient>
    
    <radialGradient id="accentGlow3" cx="50%" cy="80%" r="20%">
      <stop offset="0%" style="stop-color:#d4af37;stop-opacity:0.08" />
      <stop offset="100%" style="stop-color:#d4af37;stop-opacity:0" />
    </radialGradient>
    
    <!-- Gold accents -->
    <linearGradient id="goldAccent" x1="0%" y1="0%" x2="100%" y2="100%">
      <stop offset="0%" style="stop-color:#d4af37;stop-opacity:0.3" />
      <stop offset="50%" style="stop-color:#f4d03f;stop-opacity:0.2" />
      <stop offset="100%" style="stop-color:#b8860b;stop-opacity:0.1" />
    </linearGradient>
    
    <!-- Geometric patterns -->
    <pattern id="geometricPattern" x="0" y="0" width="100" height="100" patternUnits="userSpaceOnUse">
      <circle cx="20" cy="20" r="1" fill="#d4af37" opacity="0.1"/>
      <circle cx="80" cy="30" r="0.5" fill="#d4af37" opacity="0.1"/>
      <circle cx="40" cy="70" r="0.8" fill="#d4af37" opacity="0.1"/>
      <circle cx="90" cy="80" r="0.3" fill="#d4af37" opacity="0.1"/>
    </pattern>
  </defs>
  
  <!-- Background -->
  <rect width="1920" height="1080" fill="url(#heroGradient)"/>
  
  <!-- Accent glows -->
  <ellipse cx="384" cy="324" rx="576" ry="324" fill="url(#accentGlow1)"/>
  <ellipse cx="1536" cy="756" rx="480" ry="270" fill="url(#accentGlow2)"/>
  <ellipse cx="960" cy="864" rx="384" ry="216" fill="url(#accentGlow3)"/>
  
  <!-- Geometric pattern overlay -->
  <rect width="1920" height="1080" fill="url(#geometricPattern)"/>
  
  <!-- Decorative lines -->
  <g opacity="0.1">
    <!-- Horizontal lines -->
    <line x1="0" y1="200" x2="400" y2="200" stroke="url(#goldAccent)" stroke-width="1"/>
    <line x1="1520" y1="300" x2="1920" y2="300" stroke="url(#goldAccent)" stroke-width="1"/>
    <line x1="0" y1="800" x2="300" y2="800" stroke="url(#goldAccent)" stroke-width="1"/>
    <line x1="1620" y1="900" x2="1920" y2="900" stroke="url(#goldAccent)" stroke-width="1"/>
    
    <!-- Vertical lines -->
    <line x1="200" y1="0" x2="200" y2="300" stroke="url(#goldAccent)" stroke-width="1"/>
    <line x1="1720" y1="600" x2="1720" y2="1080" stroke="url(#goldAccent)" stroke-width="1"/>
    <line x1="400" y1="700" x2="400" y2="1080" stroke="url(#goldAccent)" stroke-width="1"/>
    <line x1="1520" y1="0" x2="1520" y2="400" stroke="url(#goldAccent)" stroke-width="1"/>
  </g>
  
  <!-- Floating elements -->
  <g opacity="0.15">
    <!-- Top left cluster -->
    <circle cx="150" cy="150" r="3" fill="#d4af37"/>
    <circle cx="180" cy="120" r="1.5" fill="#d4af37"/>
    <circle cx="120" cy="180" r="2" fill="#d4af37"/>
    
    <!-- Top right cluster -->
    <circle cx="1770" cy="200" r="2.5" fill="#d4af37"/>
    <circle cx="1800" cy="170" r="1" fill="#d4af37"/>
    <circle cx="1740" cy="230" r="1.8" fill="#d4af37"/>
    
    <!-- Bottom left cluster -->
    <circle cx="200" cy="900" r="2" fill="#d4af37"/>
    <circle cx="230" cy="870" r="1.2" fill="#d4af37"/>
    <circle cx="170" cy="930" r="1.5" fill="#d4af37"/>
    
    <!-- Bottom right cluster -->
    <circle cx="1720" cy="950" r="2.8" fill="#d4af37"/>
    <circle cx="1750" cy="920" r="1.3" fill="#d4af37"/>
    <circle cx="1690" cy="980" r="1.7" fill="#d4af37"/>
    
    <!-- Center elements -->
    <circle cx="800" cy="300" r="1.5" fill="#d4af37"/>
    <circle cx="1120" cy="400" r="2" fill="#d4af37"/>
    <circle cx="900" cy="700" r="1.8" fill="#d4af37"/>
    <circle cx="1100" cy="600" r="1.2" fill="#d4af37"/>
  </g>
  
  <!-- Subtle texture overlay -->
  <rect width="1920" height="1080" fill="url(#geometricPattern)" opacity="0.05"/>
</svg> 